<!DOCTYPE svg PUBLIC "-//W3C//DTD SVG 1.1//EN" "http://www.w3.org/Graphics/SVG/1.1/DTD/svg11.dtd">

<!-- Uploaded to: SVG Repo, www.svgrepo.com, Transformed by: SVG Repo Mixer Tools -->
<svg fill="#B4B4B8" width="800px" height="800px" viewBox="0 0 24.00 24.00" xmlns="http://www.w3.org/2000/svg" stroke="#B4B4B8" stroke-width="0.00024000000000000003">

<g id="SVGRepo_bgCarrier" stroke-width="0"/>

<g id="SVGRepo_tracerCarrier" stroke-linecap="round" stroke-linejoin="round" stroke="#000000" stroke-width="1.2">

<path d="M20,20H17V13h2a1,1,0,0,0,1-1V7a1,1,0,0,0-1-1H5A1,1,0,0,0,4,7v5a1,1,0,0,0,1,1H7v7H4a1,1,0,0,0,0,2H20a1,1,0,0,0,0-2Z"/>

<path d="M9,4h6a1,1,0,0,0,0-2H9A1,1,0,0,0,9,4Z"/>

</g>

<g id="SVGRepo_iconCarrier">

<path d="M20,20H17V13h2a1,1,0,0,0,1-1V7a1,1,0,0,0-1-1H5A1,1,0,0,0,4,7v5a1,1,0,0,0,1,1H7v7H4a1,1,0,0,0,0,2H20a1,1,0,0,0,0-2Z"/>

<path d="M9,4h6a1,1,0,0,0,0-2H9A1,1,0,0,0,9,4Z"/>

</g>

</svg>