<!DOCTYPE svg PUBLIC "-//W3C//DTD SVG 1.1//EN" "http://www.w3.org/Graphics/SVG/1.1/DTD/svg11.dtd">

<!-- Uploaded to: SVG Repo, www.svgrepo.com, Transformed by: SVG Repo Mixer Tools -->
<svg fill="#F7418F" height="800px" width="800px" version="1.1" id="Layer_1" xmlns="http://www.w3.org/2000/svg" xmlns:xlink="http://www.w3.org/1999/xlink" viewBox="-66.56 -66.56 645.12 645.12" xml:space="preserve" stroke="#F7418F" stroke-width="0.00512">

<g id="SVGRepo_bgCarrier" stroke-width="0"/>

<g id="SVGRepo_tracerCarrier" stroke-linecap="round" stroke-linejoin="round" stroke="#030303" stroke-width="25.6"> <g> <g> <path d="M21.943,124.343C9.825,124.343,0,134.167,0,146.286v219.429c0,12.118,9.825,21.943,21.943,21.943h65.881V124.343H21.943z"/> </g> </g> <g> <g> <path d="M347.034,160.914c-24.411-23.355-57.05-36.571-91.034-36.571c-33.982,0-66.624,13.217-91.035,36.571H131.71v190.171 h33.255c24.411,23.355,57.05,36.571,91.035,36.571c33.984,0,66.624-13.215,91.035-36.571h33.28V160.914H347.034z"/> </g> </g> <g> <g> <path d="M490.057,124.343h-65.858v263.314h65.858c12.117,0,21.943-9.825,21.943-21.943V146.286 C512,134.167,502.175,124.343,490.057,124.343z"/> </g> </g> </g>

<g id="SVGRepo_iconCarrier"> <g> <g> <path d="M21.943,124.343C9.825,124.343,0,134.167,0,146.286v219.429c0,12.118,9.825,21.943,21.943,21.943h65.881V124.343H21.943z"/> </g> </g> <g> <g> <path d="M347.034,160.914c-24.411-23.355-57.05-36.571-91.034-36.571c-33.982,0-66.624,13.217-91.035,36.571H131.71v190.171 h33.255c24.411,23.355,57.05,36.571,91.035,36.571c33.984,0,66.624-13.215,91.035-36.571h33.28V160.914H347.034z"/> </g> </g> <g> <g> <path d="M490.057,124.343h-65.858v263.314h65.858c12.117,0,21.943-9.825,21.943-21.943V146.286 C512,134.167,502.175,124.343,490.057,124.343z"/> </g> </g> </g>

</svg>